#!OML:ASF F:\VICON\USERDATA\INSTALL\rory3\rory3.ASF
:FULLY-SPECIFIED
:DEGREES
443
root 0.363702 16.8239 -29.6412 -213.906 -50.572 -140.814
lowerback 16.9906 -0.272751 6.38591
upperback -1.35102 1.26674 5.01907
thorax -11.0757 0.294554 1.58968
lowerneck -19.001 0.154827 0.0187105
upperneck 40.3739 -2.87786 1.31482
head 18.4215 -1.76877 -0.25286
rclavicle 7.05686e-014 -2.06736e-014
rhumerus 35.0742 27.9926 -54.8905
rradius 72.7452
rwrist -29.5044
rhand -17.1503 21.6
rfingers 7.12502
rthumb 9.09027 -8.18416
lclavicle 7.05686e-014 -2.06736e-014
lhumerus 45.608 -21.9885 59.3004
lradius 55.9423
lwrist -8.49424
lhand -20.7737 22.9573
lfingers 7.12502
lthumb 5.59283 52.8635
rfemur -58.5971 15.062 -66.294
rtibia 39.7133
rfoot -67.7082 -16.8767
rtoes 59.2146
lfemur -26.0509 2.31332 -4.89084
ltibia 49.4119
lfoot -0.95586 -8.6074
ltoes 14.8924
444
root 0.367501 17.0826 -29.7254 -219.332 -50.1341 -133.916
lowerback 16.6636 -0.523058 10.1735
upperback -1.44202 1.66799 6.57114
thorax -10.955 0.239817 1.11345
lowerneck -19.3798 0.808536 -0.656345
upperneck 39.9115 -1.23343 1.07954
head 18.2238 -1.19018 0.120051
rclavicle -1.13108e-013 2.38542e-014
rhumerus 39.5104 25.7935 -52.3484
rradius 74.9538
rwrist -29.631
rhand -17.9718 21.4116
rfingers 7.12502
rthumb 8.29758 -8.40541
lclavicle -1.13108e-013 2.38542e-014
lhumerus 51.4618 -21.8647 50.9565
lradius 58.2516
lwrist -8.84239
lhand -22.0797 23.8011
lfingers 7.12502
lthumb 4.33177 53.7368
rfemur -56.8291 17.1563 -65.112
rtibia 40.3181
rfoot -69.4708 -7.4722
rtoes 61.4546
lfemur -25.8887 0.765563 -0.0138409
ltibia 47.5556
lfoot 1.0967 -9.0166
ltoes 13.7433
445
root 0.350105 17.3545 -29.776 -223.742 -49.2702 -127.887
lowerback 15.9777 0.372491 14.8346
upperback -1.98073 3.67616 6.87736
thorax -10.8392 0.860662 -1.55039
lowerneck -19.4487 0.349427 -0.0563397
upperneck 39.6907 -2.05572 1.147
head 18.1236 -1.3567 -0.106753
rclavicle 5.96354e-014 2.8625e-014
rhumerus 40.4492 20.6266 -51.2192
rradius 77.1365
rwrist -29.7185
rhand -18.8452 21.2736
rfingers 7.12502
rthumb 7.45458 -8.57509
lclavicle 5.96354e-014 2.8625e-014
lhumerus 59.823 -22.9217 42.0704
lradius 60.1724
lwrist -8.36794
lhand -24.8305 24.5787
lfingers 7.12502
lthumb 1.67523 54.5519
rfemur -55.6799 21.6367 -65.6057
rtibia 40.7354
rfoot -72.6851 5.02785
rtoes 62.9398
lfemur -25.8313 -0.642576 4.34013
ltibia 45.3256
lfoot 3.14646 -8.78483
ltoes 11.9687
446
root 0.32587 17.6234 -29.8142 -227.765 -49.2358 -122.298
lowerback 14.8755 -0.775572 17.9391
upperback -1.71415 2.34107 8.59372
thorax -10.0536 0.0611578 -0.940525
lowerneck -18.9433 2.40147 0.939838
upperneck 38.4332 2.16007 -1.7404
head 17.3069 0.119271 -0.726572
rclavicle 2.74323e-014 2.70347e-014
rhumerus 47.6744 20.3258 -48.2591
rradius 79.2776
rwrist -30.4025
rhand -20.2593 22.0284
rfingers 7.12502
rthumb 6.08946 -7.8641
lclavicle 2.74323e-014 2.70347e-014
lhumerus 61.5537 -17.1085 36.4918
lradius 61.7597
lwrist -9.3528
lhand -26.0046 26.0048
lfingers 7.12502
lthumb 0.541308 55.9839
rfemur -53.1458 24.4082 -65.1067
rtibia 40.8233
rfoot -73.7828 6.39486
rtoes 62.1883
lfemur -26.1265 -3.15688 7.50936
ltibia 42.8414
lfoot 5.48032 -7.60507
ltoes 10.2379
447
root 0.294624 17.9176 -29.8715 -233.027 -47.3613 -115.528
lowerback 14.0363 -0.823286 22.7403
upperback -1.91408 2.758 9.8001
thorax -9.63807 -0.0634328 -2.08604
lowerneck -20.4576 2.90734 -0.89644
upperneck 39.0796 3.47068 -0.932018
head 18.012 0.489637 0.249818
rclavicle 9.34288e-015 9.46215e-014
rhumerus 50.9387 17.428 -47.2658
rradius 80.4945
rwrist -30.0581
rhand -21.8366 23.626
rfingers 7.12502
rthumb 4.56657 -6.30475
lclavicle 9.34288e-015 9.46215e-014
lhumerus 65.5341 -14.5883 32.3042
lradius 62.1151
lwrist -12.6308
lhand -26.1141 27.6608
lfingers 7.12502
lthumb 0.435581 57.6401
rfemur -51.0109 28.3687 -62.4399
rtibia 40.522
rfoot -75.4831 15.6423
rtoes 63.6054
lfemur -25.8211 -5.33711 12.7084
ltibia 39.989
lfoot 8.46714 -6.4803
ltoes 8.12603
448
root 0.250732 18.1743 -29.9131 -236.142 -47.7272 -111.031
lowerback 12.7246 -0.706333 25.1335
upperback -2.34142 2.88641 10.3063
thorax -9.30147 -0.157902 -2.68338
lowerneck -18.8392 4.20829 1.77531
upperneck 38.3043 5.43722 -3.40233
head 17.3994 1.36686 -0.960133
rclavicle -5.56597e-015 8.34896e-014
rhumerus 53.9984 14.7783 -46.0071
rradius 81.7316
rwrist -29.7785
rhand -23.0173 24.5287
rfingers 7.12502
rthumb 3.42639 -5.42354
lclavicle -5.56597e-015 8.34896e-014
lhumerus 67.3228 -10.3579 27.8438
lradius 64.1852
lwrist -13.9268
lhand -25.7307 28.0988
lfingers 7.12502
lthumb 0.805859 58.0771
rfemur -49.1415 36.2945 -64.8347
rtibia 39.5636
rfoot -81.3871 20.2658
rtoes 62.9687
lfemur -26.1148 -9.16855 14.6855
ltibia 36.9134
lfoot 11.3018 -3.42856
ltoes 6.04113
449
root 0.216259 18.4392 -29.961 -239.376 -47.8162 -106.325
lowerback 11.6742 -0.431614 27.475
upperback -3.02664 3.29945 10.892
thorax -9.37226 -0.178676 -3.15269
lowerneck -17.9388 4.98266 2.45719
upperneck 37.985 6.97449 -4.83778
head 17.1892 1.91214 -1.42641
rclavicle 4.63168e-014 1.28812e-013
rhumerus 56.5318 12.3205 -44.8847
rradius 82.6243
rwrist -29.9259
rhand -24.2255 25.4111
rfingers 7.12502
rthumb 2.25962 -4.55665
lclavicle 4.63168e-014 1.28812e-013
lhumerus 69.943 -7.758 25.7931
lradius 64.0218
lwrist -16.4489
lhand -24.5961 26.4022
lfingers 7.12502
lthumb 1.90168 56.3735
rfemur -45.832 39.5591 -63.3113
rtibia 38.4651
rfoot -82.8872 22.7425
rtoes 63.1653
lfemur -26.4526 -13.4748 17.113
ltibia 33.4598
lfoot 14.7229 1.0345
ltoes 4.187
450
root 0.186875 18.6925 -30.0064 -242.618 -48.0504 -101.534
lowerback 10.5618 -0.119561 29.7833
upperback -4.15993 3.7438 11.1055
thorax -9.21233 -0.219223 -3.73693
lowerneck -17.3094 5.611 2.76465
upperneck 38.0667 8.16114 -5.61811
head 17.2238 2.34026 -1.60918
rclavicle -7.85696e-014 3.29983e-014
rhumerus 58.72 9.86433 -43.8147
rradius 83.244
rwrist -30.3224
rhand -26.2269 26.7043
rfingers 7.12502
rthumb 0.326553 -3.27519
lclavicle -7.85696e-014 3.29983e-014
lhumerus 70.7338 -4.00499 22.2369
lradius 65.4743
lwrist -17.7322
lhand -23.0869 25.6407
lfingers 7.12502
lthumb 3.35916 55.5939
rfemur -41.5258 41.117 -60.4219
rtibia 37.1158
rfoot -82.6865 25.1722
rtoes 62.9738
lfemur -26.9966 -17.7602 19.4867
ltibia 29.6059
lfoot 18.8858 7.90921
ltoes 4.39562
451
root 0.157251 18.9387 -30.0484 -246.084 -48.5054 -96.2109
lowerback 8.99482 0.366761 31.7109
upperback -5.18103 4.16631 11.3128
thorax -9.32412 -0.249968 -4.27179
lowerneck -17.0839 6.0455 2.36742
upperneck 38.7591 9.02911 -5.66356
head 17.5911 2.604 -1.41101
rclavicle 2.42517e-014 1.27222e-014
rhumerus 60.4913 7.37211 -42.6793
rradius 83.6285
rwrist -30.971
rhand -28.9306 28.6802
rfingers 7.12502
rthumb -2.28472 -1.28731
lclavicle 2.42517e-014 1.27222e-014
lhumerus 72.0715 -0.857694 20.341
lradius 65.6316
lwrist -19.0803
lhand -21.5547 25.4871
lfingers 7.12502
lthumb 4.83874 55.4119
rfemur -36.3132 41.0159 -56.4122
rtibia 35.7967
rfoot -82.1057 23.9227
rtoes 62.7535
lfemur -28.2971 -21.648 21.8766
ltibia 25.7797
lfoot 19.8992 19.9817
ltoes 14.5575
452
root 0.142479 19.1745 -30.103 -250.383 -49.0965 -89.8416
lowerback 7.34206 0.836453 33.5023
upperback -6.47541 4.54003 11.3402
thorax -9.72832 -0.361866 -4.88977
lowerneck -16.8197 6.30342 1.71452
upperneck 39.5265 9.57313 -5.32041
head 17.9207 2.75062 -1.05444
rclavicle 1.2424e-016 -1.0138e-014
rhumerus 61.8219 4.77987 -41.6641
rradius 83.759
rwrist -32.0972
rhand -30.8602 30.1233
rfingers 7.12502
rthumb -4.14812 0.183929
lclavicle 1.2424e-016 -1.0138e-014
lhumerus 73.7237 1.70537 18.7971
lradius 64.6433
lwrist -20.2604
lhand -20.695 25.094
lfingers 7.12502
lthumb 5.66879 54.9982
rfemur -30.705 44.1481 -52.599
rtibia 34.3615
rfoot -83.6185 24.3093
rtoes 62.8317
lfemur -30.551 -24.7433 24.3309
ltibia 22.2718
lfoot 0.834911 35.7514
ltoes 40.6776
453
root 0.122359 19.426 -30.1168 -254.652 -48.6829 -83.0238
lowerback 5.20996 1.49445 36.2113
upperback -7.85837 4.91379 11.1571
thorax -9.91495 -0.554222 -5.98397
lowerneck -16.5548 6.50139 1.39484
upperneck 40.2204 9.90089 -4.96052
head 18.2181 2.86716 -0.785276
rclavicle -2.79976e-014 1.5704e-014
rhumerus 63.0539 2.21251 -41.4944
rradius 83.756
rwrist -33.6467
rhand -31.8334 29.817
rfingers 7.12502
rthumb -5.08782 -0.101877
lclavicle -2.79976e-014 1.5704e-014
lhumerus 75.0517 4.04323 16.5746
lradius 63.4761
lwrist -20.4418
lhand -20.3068 24.9674
lfingers 7.12502
lthumb 6.04364 54.8612
rfemur -24.931 45.2858 -46.8057
rtibia 32.8156
rfoot -84.0407 23.0946
rtoes 63.1732
lfemur -33.0352 -22.2865 24.3571
ltibia 19.1657
lfoot 14.698 39.7488
ltoes 21.002
454
root 0.113734 19.6734 -30.1364 -259.881 -50.2562 -75.6522
lowerback 2.85014 1.90896 36.1883
upperback -8.99381 4.66071 10.6475
thorax -10.0177 -0.771161 -6.42637
lowerneck -18.4599 6.06315 -1.39369
upperneck 41.9532 9.54559 -2.71319
head 19.3573 2.48921 0.735996
rclavicle -2.60035e-014 4.44284e-014
rhumerus 64.5569 -0.616053 -41.6344
rradius 83.3142
rwrist -35.6213
rhand -31.9986 28.0785
rfingers 7.12502
rthumb -5.24735 -1.83655
lclavicle -2.60035e-014 4.44284e-014
lhumerus 76.0203 6.8561 14.6746
lradius 61.7244
lwrist -21.4864
lhand -19.9872 23.5561
lfingers 7.12502
lthumb 6.35213 53.4408
rfemur -17.9613 39.15 -41.9047
rtibia 31.3478
rfoot -79.8097 17.0704
rtoes 62.7589
lfemur -35.4595 -24.103 23.9226
ltibia 16.4535
lfoot -20.3588 40.6266
ltoes 39.9338
455
root 0.111366 19.8958 -30.1805 -266.212 -51.4715 -66.9768
lowerback 0.0991838 2.32484 35.6426
upperback -10.1644 4.21214 10.1594
thorax -10.0283 -1.03638 -6.63407
lowerneck -17.7378 5.95572 -1.2332
upperneck 41.5506 9.64281 -3.43748
head 18.9946 2.51739 0.367195
rclavicle -4.48508e-014 8.0309e-014
rhumerus 65.9782 -3.30732 -41.5895
rradius 82.809
rwrist -39.1438
rhand -31.0987 27.4287
rfingers 7.12502
rthumb -4.37847 -2.506
lclavicle -4.48508e-014 8.0309e-014
lhumerus 76.5204 9.66361 13.0216
lradius 60.1283
lwrist -23.6502
lhand -19.3557 20.7311
lfingers 7.12502
lthumb 6.96182 50.5966
rfemur -11.7208 33.1406 -37.9504
rtibia 30.2295
rfoot -76.6953 12.7655
rtoes 62.474
lfemur -37.357 -19.6565 19.0507
ltibia 14.7656
lfoot -11.5079 42.7724
ltoes 41.477
456
root 0.113931 20.1139 -30.2339 -272.965 -51.8659 -57.6693
lowerback -2.74206 2.6844 35.2018
upperback -11.3982 3.67484 9.48688
thorax -10.0792 -1.38046 -7.07824
lowerneck -17.5697 5.58931 -2.02429
upperneck 41.4407 9.41398 -3.39191
head 18.8188 2.34652 0.481497
rclavicle -1.63003e-014 1.38354e-013
rhumerus 67.2074 -5.67219 -41.6269
rradius 82.4065
rwrist -43.5413
rhand -29.44 27.6037
rfingers 7.12502
rthumb -2.77666 -2.35794
lclavicle -1.63003e-014 1.38354e-013
lhumerus 76.5985 12.0391 11.1576
lradius 58.6303
lwrist -26.1647
lhand -17.4361 21.1706
lfingers 7.12502
lthumb 8.81457 50.9665
rfemur -7.00986 26.6976 -34.7617
rtibia 30.102
rfoot -73.0443 6.80689
rtoes 63.0347
lfemur -38.5684 -17.4879 14.5869
ltibia 11.8266
lfoot 1.5393 46.1347
ltoes 33.7742
